<?xml version="1.0" encoding="UTF-8"?>
<svg version="1.1" xmlns="http://www.w3.org/2000/svg" viewBox="60 775 1890 315">
<path d="M0 0 C170.57749077 0 170.57749077 0 205.88671875 33.9921875 C207.9980068 36.06483874 207.9980068 36.06483874 210.49609375 37.9375 C234.10979922 57.38841496 246.078011 91.43121574 249 121 C249.40089844 120.09121094 249.80179688 119.18242188 250.21484375 118.24609375 C256.42032784 104.42208745 263.24019048 91.84436598 274 81 C274.845625 80.113125 275.69125 79.22625 276.5625 78.3125 C277.366875 77.549375 278.17125 76.78625 279 76 C279.52335937 75.48179687 280.04671875 74.96359375 280.5859375 74.4296875 C296.33627619 59.60974857 317.0922265 53.81223768 338.20288086 53.81469727 C340.29627002 53.8125169 342.38912607 53.79434227 344.48242188 53.77539062 C351.56615126 53.74522892 358.18149315 53.9705837 365 56 C365.99386719 56.26039063 366.98773438 56.52078125 368.01171875 56.7890625 C384.5353634 61.95119382 398.39338738 71.59008107 408 86 C408.33 76.1 408.66 66.2 409 56 C431.11 56 453.22 56 476 56 C476 128.93 476 201.86 476 277 C453.89 277 431.78 277 409 277 C408.67 267.1 408.34 257.2 408 247 C404.535 251.455 404.535 251.455 401 256 C394.45029102 262.91883998 387.53864083 267.85490177 379 272 C378.31292969 272.37769531 377.62585938 272.75539063 376.91796875 273.14453125 C359.06869566 282.85075511 333.44759679 282.65051876 314.24609375 277.38671875 C301.70200786 273.50092084 291.09746874 267.33364808 281 259 C279.4221875 257.824375 279.4221875 257.824375 277.8125 256.625 C266.86618662 246.40844085 259.26433966 233.46011176 253 220 C252.44505859 218.83791016 252.44505859 218.83791016 251.87890625 217.65234375 C247.81321524 208.42939489 245.75814859 197.98246 244.44921875 188.01171875 C244.32408904 185.12573771 244.32408904 185.12573771 243 184 C242.731875 184.825 242.46375 185.65 242.1875 186.5 C230.84772685 219.92248928 209.36571993 244.87028594 178 261 C177.07960937 261.48082031 176.15921875 261.96164062 175.2109375 262.45703125 C122.94718337 287.94167916 50.64725049 277 0 277 C0 185.59 0 94.18 0 0 Z " fill="#FFFFFF" transform="translate(71,786)"/>
<path d="M0 0 C22.11 0 44.22 0 67 0 C67 85.47 67 170.94 67 259 C44.89 259 22.78 259 0 259 C-0.33 249.1 -0.66 239.2 -1 229 C-4.465 233.455 -4.465 233.455 -8 238 C-19.58431067 251.23921219 -37.53469602 260.23918227 -55 262 C-82.84807702 263.60572908 -107.33419863 258.6333199 -129 240 C-129.97324219 239.22785156 -130.94648437 238.45570313 -131.94921875 237.66015625 C-135.19724519 234.95012119 -137.79023289 231.89886605 -140.375 228.5625 C-140.84832764 227.95196777 -141.32165527 227.34143555 -141.80932617 226.71240234 C-162.91538785 198.89677466 -169.33853336 162.40448059 -164.984375 128.22753906 C-161.77436601 105.78915385 -153.97813824 86.00340092 -140 68 C-139.22076172 66.96939453 -139.22076172 66.96939453 -138.42578125 65.91796875 C-126.34304257 50.97432973 -108.37866177 41.58260595 -90 37 C-89.18273437 36.77570312 -88.36546875 36.55140625 -87.5234375 36.3203125 C-72.2614743 32.78341309 -55.74728767 34.11615798 -41 39 C-39.85015625 39.37382813 -38.7003125 39.74765625 -37.515625 40.1328125 C-22.30151574 45.5256071 -11.40004069 54.8666192 -1 67 C-0.67 44.89 -0.34 22.78 0 0 Z " fill="#FFFFFF" transform="translate(954,804)"/>
<path d="M0 0 C2.51723935 2.22707852 4.97597959 4.50364824 7.421875 6.80859375 C8.03804687 7.3603125 8.65421875 7.91203125 9.2890625 8.48046875 C22.14854773 20.45104947 30.68484187 38.11619131 35.421875 54.80859375 C35.63457031 55.52273438 35.84726563 56.236875 36.06640625 56.97265625 C44.25565984 86.54823398 39.10068659 121.55029449 24.62890625 148.09765625 C22.99101417 150.75876237 21.27205449 153.29120351 19.421875 155.80859375 C18.81859375 156.63230469 18.2153125 157.45601562 17.59375 158.3046875 C-0.46492455 181.83235089 -26.66044147 196.65736666 -56.00390625 201.3125 C-65.45711314 202.52259555 -75.07632061 202.07070052 -84.578125 201.80859375 C-85.88007812 201.78925781 -87.18203125 201.76992187 -88.5234375 201.75 C-118.47238646 200.58177859 -144.62516343 185.95266469 -164.765625 164.49609375 C-173.13027872 154.72283929 -179.08439658 143.82862804 -183.578125 131.80859375 C-184.14660156 130.308125 -184.14660156 130.308125 -184.7265625 128.77734375 C-194.85936683 99.21698224 -193.05323093 63.99746685 -179.7265625 35.7734375 C-175.56764736 27.42414795 -170.45000574 20.05703261 -164.578125 12.80859375 C-164.03929687 12.10476563 -163.50046875 11.4009375 -162.9453125 10.67578125 C-148.09397473 -7.75778874 -124.28642502 -18.53250231 -101.578125 -23.19140625 C-100.670625 -23.39636719 -99.763125 -23.60132813 -98.828125 -23.8125 C-65.42365305 -30.25352185 -26.19185099 -22.26307335 0 0 Z " fill="#FFFFFF" transform="translate(1216.578125,864.19140625)"/>
<path d="M0 0 C0.76441406 0.62261719 1.52882813 1.24523437 2.31640625 1.88671875 C2.94675781 2.35464844 3.57710937 2.82257812 4.2265625 3.3046875 C19.77720504 15.3838882 28.9533833 37.38952114 31.40377808 56.36474609 C32.36673597 64.16684864 32.58796315 71.87584484 32.54345703 79.73828125 C32.54289069 81.13963818 32.54321381 82.5409957 32.54434204 83.94235229 C32.54490788 87.68927333 32.53328069 91.43606215 32.51919413 95.18295288 C32.50655611 99.12000835 32.5055061 103.057068 32.50314331 106.99414062 C32.49696647 114.42390645 32.48060795 121.8536123 32.46044433 129.2833519 C32.43374988 139.34127252 32.42308196 149.39920994 32.4114399 159.45715714 C32.39272389 175.26705579 32.35285323 191.07682798 32.31640625 206.88671875 C10.20640625 206.88671875 -11.90359375 206.88671875 -34.68359375 206.88671875 C-34.72226562 192.92810547 -34.72226562 192.92810547 -34.76171875 178.6875 C-34.78689816 172.77667193 -34.81307795 166.86587603 -34.84375 160.95507812 C-34.89220216 151.58227799 -34.93668015 142.20958485 -34.95458984 132.83666992 C-34.96765547 126.00872789 -34.99474415 119.18100492 -35.03820682 112.35318631 C-35.06071219 108.7426851 -35.07651107 105.13245295 -35.0754776 101.52187538 C-35.07458392 97.47692455 -35.1050183 93.43275862 -35.13769531 89.38793945 C-35.13266495 88.20973129 -35.12763458 87.03152313 -35.12245178 85.81761169 C-35.28268151 72.91746549 -38.6651907 61.49503068 -47.49609375 51.921875 C-52.31588134 47.32558562 -57.40631514 44.96056213 -63.68359375 42.88671875 C-65.16859375 42.39171875 -65.16859375 42.39171875 -66.68359375 41.88671875 C-80.71272966 40.76642478 -92.85093842 41.31569657 -104.421875 49.92578125 C-114.32552012 58.5123613 -117.8790284 70.44636516 -118.96457481 83.18360519 C-119.08643529 86.50378536 -119.12015944 89.81189837 -119.1159668 93.13427734 C-119.12615845 94.37502518 -119.1363501 95.61577301 -119.14685059 96.89411926 C-119.17159815 100.24661672 -119.18365564 103.59867849 -119.18970466 106.95122862 C-119.19918254 110.47329953 -119.22539223 113.99524835 -119.24971008 117.51724243 C-119.29312293 124.16432862 -119.32182376 130.81139078 -119.34503347 137.45857489 C-119.37732071 146.45666688 -119.43275165 155.45461578 -119.48677921 164.45259857 C-119.57110842 178.59726232 -119.62487623 192.74187175 -119.68359375 206.88671875 C-141.79359375 206.88671875 -163.90359375 206.88671875 -186.68359375 206.88671875 C-186.68359375 133.95671875 -186.68359375 61.02671875 -186.68359375 -14.11328125 C-164.24359375 -14.11328125 -141.80359375 -14.11328125 -118.68359375 -14.11328125 C-118.35359375 -5.20328125 -118.02359375 3.70671875 -117.68359375 12.88671875 C-114.71359375 9.58671875 -111.74359375 6.28671875 -108.68359375 2.88671875 C-78.1004442 -21.41222199 -31.50074837 -24.64663621 0 0 Z " fill="#FFFFFF" transform="translate(752.68359375,856.11328125)"/>
<path d="M0 0 C20.46 0 40.92 0 62 0 C62.33 47.52 62.66 95.04 63 144 C71.70801172 132.57073462 80.30548623 121.25174694 88.65625 109.59375 C92.99169467 103.59082661 97.51803084 97.73430764 102.02563477 91.86035156 C108.16616149 83.83611326 114.09106014 75.66611393 119.94702148 67.43261719 C121 66 121 66 122 65 C124.37300869 64.90505267 126.71678703 64.87440681 129.09008789 64.88647461 C129.83150528 64.88632858 130.57292267 64.88618256 131.33680725 64.8860321 C133.79878621 64.88673135 136.26069043 64.89452426 138.72265625 64.90234375 C140.42516539 64.90420789 142.12767507 64.90563181 143.83018494 64.90663147 C148.31993073 64.91045698 152.80964438 64.92028753 157.29937744 64.93133545 C161.87731491 64.94154887 166.45525756 64.94612894 171.03320312 64.95117188 C180.02214957 64.96190978 189.01107212 64.97898659 198 65 C197.05675699 66.26662306 196.1122554 67.53230892 195.16723633 68.79760742 C194.64140457 69.5025383 194.11557281 70.20746918 193.57380676 70.9337616 C191.37862842 73.81579382 189.05069252 76.56800763 186.6875 79.3125 C181.71078442 85.14382023 176.83572728 91.05101177 172 97 C166.76210656 103.44373941 161.4661975 109.83016662 156.09082031 116.15917969 C151.6594004 121.38447188 147.32155158 126.68355885 143 132 C138.18290486 137.92606669 133.3258873 143.81051706 128.375 149.625 C124.10468596 154.64178423 119.97767898 159.74620558 116 165 C120.02224901 170.54418107 124.31807276 175.80234903 128.76123047 181.01074219 C131.69631841 184.45297062 134.58739151 187.92409353 137.4375 191.4375 C141.84913055 196.85570579 146.39323642 202.1527085 150.94921875 207.44921875 C157.19427321 214.71031003 163.3963115 222.00553429 169.4375 229.4375 C172.89275371 233.68393882 176.42732837 237.85264792 180 242 C194.11488655 258.40838763 194.11488655 258.40838763 198 265 C188.31667006 265.41922104 178.63650936 265.73789988 168.94604969 265.93261909 C164.44455438 266.02614276 159.9493106 266.15262443 155.45141602 266.35791016 C126.49072304 267.6453514 126.49072304 267.6453514 119.16204834 263.32824707 C114.80765858 259.2873146 112.24432001 254.58396574 109.95126343 249.15667725 C108.71505467 246.35398009 107.03504305 244.1017057 105.125 241.71875 C104.34080688 240.65901978 104.34080688 240.65901978 103.54077148 239.57788086 C103.03231689 238.89218018 102.5238623 238.20647949 102 237.5 C95.26301273 228.38358625 88.62233172 219.19987418 82 210 C79.68866505 206.79082536 77.37586948 203.58270821 75.0625 200.375 C74.54292725 199.65304443 74.02335449 198.93108887 73.48803711 198.18725586 C72.98796143 197.4938208 72.48788574 196.80038574 71.97265625 196.0859375 C71.54218994 195.4882959 71.11172363 194.8906543 70.66821289 194.27490234 C68.14099237 190.82859167 65.56417712 187.41890282 63 184 C62.67 211.06 62.34 238.12 62 266 C41.54 266 21.08 266 0 266 C0 178.22 0 90.44 0 0 Z " fill="#FFFFFF" transform="translate(1727,804)"/>
<path d="M0 0 C1.00546875 0.35191406 2.0109375 0.70382812 3.046875 1.06640625 C22.28079513 8.46219026 35.90862799 22.29057695 44.375 40.9375 C49.94652687 54.79686601 51.15914954 68.99372164 51.11352539 83.77172852 C51.11367142 85.02149979 51.11381744 86.27127106 51.1139679 87.55891418 C51.11339379 90.95912352 51.10840531 94.35927089 51.10139394 97.75946927 C51.09510977 101.32287488 51.09455261 104.88628147 51.09336853 108.44969177 C51.09027007 115.18551688 51.08207684 121.92132561 51.07201904 128.65714353 C51.05871282 137.76773532 51.05334599 146.87833164 51.04751682 155.9889307 C51.03813584 170.32596605 51.01820704 184.66296685 51 199 C30.87 199 10.74 199 -10 199 C-10.01417969 190.57210938 -10.02835938 182.14421875 -10.04296875 173.4609375 C-10.06559617 167.4191585 -10.09134315 161.3774554 -10.12156963 155.33571625 C-10.16024227 147.52325901 -10.19172714 139.71099791 -10.19555664 131.8984375 C-10.19861398 125.70952024 -10.21933953 119.52094569 -10.26052457 113.33216059 C-10.28169793 110.060783 -10.29190003 106.78999206 -10.28615379 103.51853561 C-9.8779203 80.72557332 -9.8779203 80.72557332 -19.43359375 60.51953125 C-28.69632337 51.53399054 -37.94052012 48.48084773 -50.62133789 48.58007812 C-61.00697653 48.93729555 -69.66279262 52.51976713 -77 60 C-84.50410655 69.77011684 -86.44832421 80.0783701 -86.43237305 92.15087891 C-86.4425647 93.32276764 -86.45275635 94.49465637 -86.46325684 95.70205688 C-86.49325126 99.54360825 -86.50263231 103.38490969 -86.51171875 107.2265625 C-86.52857548 109.90271752 -86.54658331 112.57884012 -86.56611633 115.25497437 C-86.60961889 121.55865738 -86.63826516 127.86231485 -86.66143972 134.16610181 C-86.69124648 142.05482773 -86.74112325 149.94341118 -86.79101562 157.83203125 C-86.87982608 171.88797728 -86.93851759 185.94384893 -87 200 C-107.46 200 -127.92 200 -149 200 C-149 133.67 -149 67.34 -149 -1 C-128.54 -1 -108.08 -1 -87 -1 C-86.505 10.88 -86.505 10.88 -86 23 C-84.411875 21.329375 -82.82375 19.65875 -81.1875 17.9375 C-60.98393467 -2.59890825 -27.26097851 -9.6971195 0 0 Z " fill="#FFFFFF" transform="translate(1661,870)"/>
<path d="M0 0 C22.44 0 44.88 0 68 0 C68 68.31 68 136.62 68 207 C97.04 207 126.08 207 156 207 C156 224.16 156 241.32 156 259 C104.52 259 53.04 259 0 259 C0 173.53 0 88.06 0 0 Z " fill="#FFFFFF" transform="translate(1261,804)"/>
<!-- 文字内部の抜き穴: 背景色(slate-900 = #0f172a)で塗ることで穴に見せる -->
<path d="M0 0 C70.1075462 0 70.1075462 0 93.375 21.875 C109.32060205 38.79412302 113.17602731 58.9803117 113.1875 81.375 C113.19974609 82.62539063 113.21199219 83.87578125 113.22460938 85.1640625 C113.25686755 105.72327198 107.69609403 124.46570633 93.39453125 139.62109375 C68.1413834 164.7094576 33.55620512 162 0 162 C0 108.54 0 55.08 0 0 Z " fill="#0f172a" transform="translate(138,843)"/>
<path d="M0 0 C20.46 0 40.92 0 62 0 C62 59.4 62 118.8 62 180 C41.54 180 21.08 180 0 180 C0 120.6 0 61.2 0 0 Z " fill="#2081FF" transform="translate(1434,804)"/>
<path d="M0 0 C0.6703125 0.25523437 1.340625 0.51046875 2.03125 0.7734375 C14.80410146 6.29820262 23.02511547 17.78766713 28.01953125 30.265625 C30.43892382 37.01293494 30.22066691 43.43822526 30.25 50.5625 C30.270625 51.78775391 30.29125 53.01300781 30.3125 54.27539062 C30.35505145 64.25902376 29.0870773 73.10531336 24.0625 81.875 C23.57910156 82.73867188 23.09570312 83.60234375 22.59765625 84.4921875 C15.57722676 95.51203036 4.74819783 103.10993568 -8 106 C-21.11179757 107.84843523 -33.86308426 105.84030284 -44.875 98.25 C-56.84908694 88.8169257 -62.86619353 77.25097958 -65.6875 62.375 C-67.46271539 43.64081207 -65.25608352 26.77950162 -53 11.8125 C-39.4428329 -2.57048438 -18.44242126 -7.68434219 0 0 Z " fill="#0f172a" transform="translate(923,901)"/>
<path d="M0 0 C10.42837387 8.60388857 17.3181811 18.37974558 20.12109375 31.75 C20.55347677 36.36243535 20.58610929 40.9323858 20.55859375 45.5625 C20.57857422 46.74392578 20.59855469 47.92535156 20.61914062 49.14257812 C20.61181659 62.50893759 16.81871187 76.0365003 7.74609375 86.21484375 C-3.82784559 97.14887779 -16.44898794 101.20135958 -32.15234375 101.01953125 C-44.53338915 100.12404683 -54.46777906 94.55665849 -63.06640625 85.75 C-70.51600541 76.23710078 -75.2434243 64.78271264 -75.87890625 52.75 C-75.91983398 52.09918457 -75.96076172 51.44836914 -76.00292969 50.77783203 C-76.86796033 35.50396461 -74.28416882 21.29035009 -64.87890625 8.75 C-48.28956571 -9.59452674 -20.76834053 -15.24281874 0 0 Z " fill="#0f172a" transform="translate(458.87890625,906.25)"/>
<path d="M0 0 C9.92805972 7.56423598 15.61876475 18.94728618 18 31 C18.18433594 31.928125 18.36867188 32.85625 18.55859375 33.8125 C20.84326784 50.3106775 19.04694336 69.40628317 9.25 83.3125 C1.16083383 93.06889889 -9.20762971 100.26870177 -22 102 C-35.35057599 103.16091965 -46.76066476 99.57675509 -57.1875 91.25390625 C-62.87170794 86.07567894 -65.97159775 79.99233004 -69 73 C-69.3609375 72.1853125 -69.721875 71.370625 -70.09375 70.53125 C-75.87872706 54.37321063 -74.55180467 32.64819404 -68 17 C-62.83090204 6.56321094 -55.09316991 -1.39111228 -44.0625 -5.5 C-42.38530296 -6.03354133 -40.69819014 -6.53760787 -39 -7 C-38.37351562 -7.19207031 -37.74703125 -7.38414062 -37.1015625 -7.58203125 C-23.7983603 -10.22783541 -11.32357767 -6.93027704 0 0 Z " fill="#0f172a" transform="translate(1168,906)"/>
<path d="M0 0 C1.20257446 0.00845947 1.20257446 0.00845947 2.42944336 0.01708984 C13.04606033 0.23536533 21.09223873 3.66422455 28.9453125 10.94140625 C35.6988369 18.25489624 37.79555557 25.56911254 37.65795898 35.42944336 C37.27095147 44.18200537 34.14076985 50.11542233 28.2421875 56.45703125 C18.65205682 65.11732036 8.18328888 66.98893783 -4.28125 66.69140625 C-12.56285314 66.20923445 -20.23632107 62.82525463 -26.28125 57.12109375 C-32.73309919 49.50066984 -34.99454388 42.82815395 -35.0625 33 C-35.0934375 31.89881836 -35.0934375 31.89881836 -35.125 30.77539062 C-35.18536345 22.27168991 -31.72691003 15.39384902 -25.8125 9.3125 C-17.55264559 3.04386049 -10.33492408 -0.07542954 0 0 Z " fill="#2080FF" transform="translate(1463.8125,1004.6875)"/>
</svg>
